<svg width="300" height="51" viewBox="0 0 300 51" fill="none" xmlns="http://www.w3.org/2000/svg">
<path fill-rule="evenodd" clip-rule="evenodd" d="M125.72 28.2071C130.966 30.1399 133.988 31.2538 133.988 36.2261C133.988 40.7891 130.759 43.7384 125.634 43.7384C120.508 43.7384 116.858 40.6486 116.858 35.5241V34.8214H109.417C109.417 44.7907 116.507 50.548 125.634 50.548C134.901 50.548 141.43 43.7384 141.43 35.945C141.43 31.9434 140.166 29.4158 138.06 27.1692C135.954 24.9233 133.356 23.5193 129.003 21.9042L126.195 20.8518C120.017 18.534 118.051 16.7796 118.051 13.2689C118.051 9.26664 121 6.80961 125.563 6.80961C130.057 6.80961 133.216 9.26663 133.216 13.7605V14.6729H140.657C140.657 5.68598 134.971 0 125.563 0C115.313 0 110.609 7.09069 110.609 13.4094C110.609 16.9188 111.733 19.4471 113.559 21.6937C115.383 23.9409 117.911 25.2743 121.632 26.6784L125.002 27.9418C125.246 28.0322 125.485 28.1204 125.72 28.2071ZM43.6678 0.701569L25.9757 29.2755L8.35416 0.701569H0V49.8455H7.02007V11.0911L22.746 36.5766H29.2053L45.0019 11.0911V49.8455H52.0219V0.701569H43.6678ZM93.9302 29.2759V0.702653H101.022V29.2046C101.022 42.6154 93.3687 50.5479 81.8548 50.5479C70.3416 50.5479 62.6895 42.6154 62.6895 29.2046V0.702653H69.7795V29.2759C69.7795 38.1922 74.4131 43.6677 81.8548 43.6677C89.2972 43.6677 93.9302 38.1922 93.9302 29.2759ZM150.368 49.8459H157.53V0.702653H150.368V49.8459ZM175.432 49.8459V11.7949L200.986 49.8459H208.85V0.702653H201.829V38.9634L176.204 0.702653H168.411V49.8459H175.432ZM241.819 36.2261C241.819 31.2541 238.796 30.1401 233.553 28.2075C233.317 28.1207 233.077 28.0323 232.833 27.9418L229.463 26.6784C225.742 25.2743 223.215 23.9409 221.39 21.6937C219.564 19.4471 218.44 16.9188 218.44 13.4094C218.44 7.09069 223.145 0 233.395 0C242.802 0 248.489 5.68598 248.489 14.6729H241.047V13.7605C241.047 9.26663 237.888 6.80961 233.395 6.80961C228.831 6.80961 225.883 9.26664 225.883 13.2689C225.883 16.7796 227.848 18.534 234.027 20.8518L236.835 21.9042C241.187 23.5193 243.785 24.9233 245.891 27.1692C247.997 29.4158 249.261 31.9434 249.261 35.945C249.261 43.7384 242.732 50.548 233.466 50.548C224.338 50.548 217.248 44.7907 217.248 34.8214H224.689V35.5241C224.689 40.6486 228.34 43.7384 233.466 43.7384C238.59 43.7384 241.819 40.7891 241.819 36.2261ZM287.223 36.1553H265.319L259.773 49.8451H252.541L272.41 0.701175H280.133L300 49.8451H292.769L287.223 36.1553ZM276.271 9.12667L268.127 29.2052H284.415L276.271 9.12667Z" fill="white"/>
</svg>
